<?xml version="1.0" encoding="utf-8"?>
<!-- Generator: Adobe Illustrator 24.0.1, SVG Export Plug-In . SVG Version: 6.00 Build 0)  -->
<svg version="1.1" id="Layer_1" xmlns="http://www.w3.org/2000/svg" xmlns:xlink="http://www.w3.org/1999/xlink" x="0px" y="0px"
	 viewBox="0 0 115.7 115.7" style="enable-background:new 0 0 115.7 115.7;" xml:space="preserve">
<path d="M57.8,0C25.8,0,0,25.9,0,57.9c0,28.9,21.2,52.8,48.8,57.2V115V74.6H34.1v-0.1V57.9v-0.1h14.6V45.1
	c0-14.5,8.7-22.5,21.9-22.5c0,0,0.1,0,0.1,0c0,0,0,0,0,0c6.3,0,13,1.1,13,1.1V38h-0.1h-7.2c-7.2,0-9.4,4.5-9.4,9v10.9h16l-2.6,16.7
	H66.9V115c27.7-4.3,48.8-28.2,48.8-57.1C115.7,25.9,89.8,0,57.8,0z"/>
</svg>
