<?xml version="1.0" encoding="utf-8"?>
<!-- Generator: Adobe Illustrator 24.0.1, SVG Export Plug-In . SVG Version: 6.00 Build 0)  -->
<svg version="1.1" id="Layer_1" xmlns="http://www.w3.org/2000/svg" xmlns:xlink="http://www.w3.org/1999/xlink" x="0px" y="0px"
	 viewBox="0 0 115.7 115.7" style="enable-background:new 0 0 115.7 115.7;" xml:space="preserve">
<g>
	<path d="M57.9,0C25.9,0,0,25.9,0,57.9s25.9,57.9,57.9,57.9s57.9-25.9,57.9-57.9S89.9,0,57.9,0z M91.8,71.3
		c0,11.3-9.1,20.4-20.4,20.4H44.3c-11.2,0-20.4-9.1-20.4-20.4V44.2c0-11.2,9.1-20.4,20.4-20.4h27.1c11.2,0,20.4,9.1,20.4,20.4V71.3z
		"/>
	<ellipse transform="matrix(0.9732 -0.2298 0.2298 0.9732 -11.7255 14.8949)" cx="58.1" cy="57.8" rx="10.7" ry="10.7"/>
	<path d="M71.4,30.2H44.3c-7.7,0-14,6.3-14,14v27.1c0,7.7,6.3,14,14,14h27.1c7.7,0,14-6.3,14-14V44.2C85.4,36.5,79.1,30.2,71.4,30.2
		z M58.1,74.5c-9.2,0-16.7-7.5-16.7-16.7c0-9.2,7.5-16.7,16.7-16.7c9.3,0,16.8,7.5,16.7,16.7C74.8,67,67.3,74.5,58.1,74.5z M75.8,44
		c-2.2,0-4-1.8-4-4s1.8-4,4-4c2.2,0,4,1.8,4,4S78,44,75.8,44z"/>
</g>
</svg>
