<?xml version="1.0" encoding="utf-8"?>
<!-- Generator: Adobe Illustrator 24.0.1, SVG Export Plug-In . SVG Version: 6.00 Build 0)  -->
<svg version="1.1" id="Layer_1" xmlns="http://www.w3.org/2000/svg" xmlns:xlink="http://www.w3.org/1999/xlink" x="0px" y="0px"
	 viewBox="0 0 3065.7 3080.9" style="enable-background:new 0 0 3065.7 3080.9;" xml:space="preserve">
<style type="text/css">
	.st0{font-family:'Poppins-Light';}
	.st1{font-size:56px;}
	.st2{letter-spacing:1;}
	.st3{fill:#B4A27E;}
	.st4{fill:#9CA49C;}
	.st5{fill:#DCC5A4;}
	.st6{fill:#E7E8E1;}
	.st7{fill:#ECE0D5;}
</style>
<g>
	<g>
		<defs>
			<path id="SVGID_1_" d="M458.2,2082.7l-269.5,118.7c145.1,297.5,378.4,527.9,655.1,671.7l125.3-266.4
				C754.6,2492.4,573.3,2313,458.2,2082.7z"/>
		</defs>
		<clipPath id="SVGID_2_">
			<use xlink:href="#SVGID_1_"  style="overflow:visible;"/>
		</clipPath>
		<g transform="matrix(1 0 0 1 0 1.220703e-04)" style="clip-path:url(#SVGID_2_);">
			
				<image style="overflow:visible;" width="3667" height="5500" xlink:href="3756B94E.jpg"  transform="matrix(0.2205 0 0 0.2205 188.718 1969.7667)">
			</image>
		</g>
	</g>
	<g>
		<defs>
			<path id="SVGID_3_" d="M877.4,194.8C579.8,339.9,349.6,573.2,205.7,850l266.4,125.3c114.2-214.6,293.6-395.9,524-511L877.4,194.8
				z"/>
		</defs>
		<clipPath id="SVGID_4_">
			<use xlink:href="#SVGID_3_"  style="overflow:visible;"/>
		</clipPath>
		<g style="clip-path:url(#SVGID_4_);">
			
				<image style="overflow:visible;" width="5500" height="3667" xlink:href="3756B952.jpg"  transform="matrix(0.2371 2.241402e-02 -2.241402e-02 0.2371 250.2675 127.5194)">
			</image>
		</g>
	</g>
	<g>
		<defs>
			<path id="SVGID_5_" d="M2689.8,1190.9c75.4,246.3,67.6,501.2-9.2,731.9l274.5,106.6c101.4-294.9,111.7-622.6,11.8-938.2
				L2689.8,1190.9z"/>
		</defs>
		<clipPath id="SVGID_6_">
			<use xlink:href="#SVGID_5_"  style="overflow:visible;"/>
		</clipPath>
		<g style="clip-path:url(#SVGID_6_);">
			
				<image style="overflow:visible;" width="3667" height="5500" xlink:href="3756B955.jpg"  transform="matrix(0.2081 -4.443371e-02 4.443371e-02 0.2081 2380.0667 1086.9458)">
			</image>
		</g>
	</g>
	<g>
		<defs>
			<path id="SVGID_7_" d="M2600.5,2109.5c-114.2,214.6-293.6,395.9-524,511l118.7,269.4c297.5-145.1,527.9-378.4,671.7-655.1
				L2600.5,2109.5z"/>
		</defs>
		<clipPath id="SVGID_8_">
			<use xlink:href="#SVGID_7_"  style="overflow:visible;"/>
		</clipPath>
		<g style="clip-path:url(#SVGID_8_);">
			
				<image style="overflow:visible;" width="3667" height="5500" xlink:href="3756B956.jpg"  transform="matrix(0.2777 5.280949e-02 -5.280949e-02 0.2777 2018.3473 1429.1129)">
			</image>
		</g>
	</g>
	<g>
		<defs>
			<path id="SVGID_9_" d="M2228.8,211.8l-125.4,266.4c214.7,114.2,395.9,293.6,511.1,524l269.4-118.7
				C2738.8,586,2505.5,355.7,2228.8,211.8z"/>
		</defs>
		<clipPath id="SVGID_10_">
			<use xlink:href="#SVGID_9_"  style="overflow:visible;"/>
		</clipPath>
		<g style="clip-path:url(#SVGID_10_);">
			
				<image style="overflow:visible;" width="3667" height="5500" xlink:href="3756B954.jpg"  transform="matrix(0.2149 0 0 0.2149 2103.3833 194.8461)">
			</image>
		</g>
	</g>
	<g>
		<defs>
			<path id="SVGID_11_" d="M1085,111.9l99.7,277c246.3-75.4,501.2-67.6,731.9,9.2l106.6-274.5C1728.3,22.3,1400.6,11.9,1085,111.9z"
				/>
		</defs>
		<clipPath id="SVGID_12_">
			<use xlink:href="#SVGID_11_"  style="overflow:visible;"/>
		</clipPath>
		<g transform="matrix(1 0 0 1 0 0)" style="clip-path:url(#SVGID_12_);">
			
				<image style="overflow:visible;" width="5500" height="3667" xlink:href="3756B953.jpg"  transform="matrix(0.1741 0 0 0.1741 1075.488 -201)">
			</image>
		</g>
	</g>
	<g>
		<defs>
			<path id="SVGID_13_" d="M117.5,1055.5c-101.4,294.9-111.7,622.6-11.8,938.2l277-99.8c-75.3-246.3-67.6-501.1,9.2-731.8
				L117.5,1055.5z"/>
		</defs>
		<clipPath id="SVGID_14_">
			<use xlink:href="#SVGID_13_"  style="overflow:visible;"/>
		</clipPath>
	</g>
	<g>
		<defs>
			<path id="SVGID_15_" d="M1156,2686.8l-106.6,274.4c294.9,101.4,622.6,111.7,938.2,11.8l-99.8-277
				C1641.5,2771.3,1386.7,2763.6,1156,2686.8z"/>
		</defs>
		<clipPath id="SVGID_16_">
			<use xlink:href="#SVGID_15_"  style="overflow:visible;"/>
		</clipPath>
		<g style="clip-path:url(#SVGID_16_);">
			
				<image style="overflow:visible;" width="3667" height="5500" xlink:href="3756B95D.jpg"  transform="matrix(0.2635 0 0 0.2635 1039.0012 2061.4163)">
			</image>
		</g>
	</g>
	<g>
		<path d="M1536.3,457.2c73.2,0,146.4,7.4,217.4,21.9c69.3,14.2,137.4,35.3,202.5,62.9c63.9,27,125.6,60.5,183.3,99.5
			c57.1,38.6,110.9,82.9,159.7,131.7c48.8,48.8,93.1,102.5,131.7,159.7c39,57.7,72.4,119.3,99.5,183.3
			c27.5,65.1,48.7,133.2,62.9,202.5c14.5,71.1,21.9,144.2,21.9,217.4c0,73.2-7.4,146.4-21.9,217.4c-14.2,69.3-35.3,137.4-62.9,202.5
			c-27,63.9-60.5,125.6-99.5,183.3c-38.6,57.1-82.9,110.9-131.7,159.7c-48.8,48.8-102.5,93.1-159.7,131.7
			c-57.7,39-119.3,72.4-183.3,99.5c-65.1,27.5-133.2,48.7-202.5,62.9c-71.1,14.5-144.2,21.9-217.4,21.9
			c-73.2,0-146.4-7.4-217.4-21.9c-69.3-14.2-137.4-35.3-202.5-62.9c-63.9-27-125.6-60.5-183.3-99.5
			c-57.1-38.6-110.9-82.9-159.7-131.7c-48.8-48.8-93.1-102.5-131.7-159.7c-39-57.7-72.4-119.3-99.5-183.3
			c-27.5-65.1-48.7-133.2-62.9-202.5c-14.5-71.1-21.9-144.2-21.9-217.4c0-73.2,7.4-146.4,21.9-217.4
			c14.2-69.3,35.3-137.4,62.9-202.5c27-63.9,60.5-125.6,99.5-183.3c38.6-57.1,82.9-110.9,131.7-159.7
			C822.2,724.4,876,680,933.1,641.5c57.7-39,119.3-72.4,183.3-99.5c65.1-27.5,133.2-48.7,202.5-62.9
			C1389.9,464.6,1463.1,457.2,1536.3,457.2 M1536.3,456.1c-596.4,0-1080,483.5-1080,1080s483.5,1080,1080,1080s1080-483.5,1080-1080
			S2132.7,456.1,1536.3,456.1L1536.3,456.1z"/>
	</g>
	<g>
		<text transform="matrix(1 0 0 1 643.4312 1519.0878)"><tspan x="0" y="0" class="st0 st1 st2">STRATEGY +</tspan><tspan x="-13.3" y="67.2" class="st0 st1 st2">POSITIONING</tspan></text>
	</g>
	<g>
		<text transform="matrix(1 0 0 1 1801.6217 2175.0125)" class="st0 st1 st2">SUSTAINABILITY</text>
	</g>
	<g>
		<text transform="matrix(1 0 0 1 874.0286 2094.3298)"><tspan x="0" y="0" class="st0 st1 st2">SCIENTIFIC +</tspan><tspan x="18" y="67.2" class="st0 st1 st2">CONSUMER</tspan><tspan x="63.6" y="134.4" class="st0 st1 st2">TESTING</tspan></text>
	</g>
	<g>
		<text transform="matrix(1 0 0 1 1820.7706 1485.4872)"><tspan x="0" y="0" class="st0 st1 st2">CLINICALLY EFFECTIVE +</tspan><tspan x="204.8" y="67.2" class="st0 st1 st2">NATURAL</tspan><tspan x="114.9" y="134.4" class="st0 st1 st2">FORMULATIONS</tspan></text>
	</g>
	<g>
		<text transform="matrix(1 0 0 1 1364.1857 2345.1184)"><tspan x="0" y="0" class="st0 st1 st2">NAVIGATING</tspan><tspan x="-50.2" y="67.2" class="st0 st1 st2">CERTIFICATIONS</tspan></text>
	</g>
	<g>
		<g>
			<text transform="matrix(1 0 0 1 1935.5104 893.5951)"><tspan x="0" y="0" class="st0 st1 st2">SHARING</tspan><tspan x="-83.9" y="67.2" class="st0 st1 st2">RELATIONSHIPS</tspan></text>
			<text transform="matrix(1 0 0 1 848.8875 893.5951)"><tspan x="0" y="0" class="st0 st1 st2">PACKAGING</tspan><tspan x="17.9" y="67.2" class="st0 st1 st2">SOURCING</tspan></text>
		</g>
	</g>
	<g>
		<text transform="matrix(1 0 0 1 1436.1996 708.598)"><tspan x="0" y="0" class="st0 st1 st2">FUTURE</tspan><tspan x="-43.7" y="67.2" class="st0 st1 st2">BRANDING</tspan></text>
	</g>
	<g>
	</g>
	<g>
		<circle class="st3" cx="1536.3" cy="2616" r="41.8"/>
		<circle class="st4" cx="1536.3" cy="456.1" r="41.8"/>
		<circle class="st4" cx="772.6" cy="2299.7" r="41.8"/>
		<circle class="st5" cx="2299.9" cy="772.4" r="41.8"/>
		<circle class="st5" cx="456.3" cy="1536.1" r="41.8"/>
		<circle class="st6" cx="2616.3" cy="1536.1" r="41.8"/>
		<circle class="st7" cx="772.6" cy="772.4" r="41.8"/>
		<circle class="st7" cx="2299.9" cy="2299.7" r="41.8"/>
	</g>
	<g>
		<defs>
			<path id="SVGID_17_" d="M117.5,1055.5c-101.4,294.9-111.7,622.6-11.8,938.2l277-99.8c-75.3-246.3-67.6-501.1,9.2-731.8
				L117.5,1055.5z"/>
		</defs>
		<clipPath id="SVGID_18_">
			<use xlink:href="#SVGID_17_"  style="overflow:visible;"/>
		</clipPath>
		<g style="clip-path:url(#SVGID_18_);">
			
				<image style="overflow:visible;" width="3667" height="5500" xlink:href="3756B95E.jpg"  transform="matrix(0.1749 0 0 0.1749 -153 1054.9899)">
			</image>
		</g>
	</g>
</g>
</svg>
