<?xml version="1.0" encoding="UTF-8"?>
<svg id="Layer_2" data-name="Layer 2" xmlns="http://www.w3.org/2000/svg" viewBox="0 0 439.96 340.18">
  <defs>
    <style>
      .cls-1 {
        fill: #ece0d5;
      }

      .cls-2 {
        fill: #e68180;
      }

      .cls-3 {
        fill: #808181;
      }

      .cls-4 {
        fill: #5a5a5a;
      }
    </style>
  </defs>
  <g id="Layer_1-2" data-name="Layer 1">
    <g>
      <path class="cls-1" d="M305.47,260.65c6.15,17.39-59.48,78.92-132.53,79.52C92.76,340.83,3.38,268.09,.09,174.05-2.09,111.4,34.44,53.89,81.64,25.04,116.45,3.76,154.14-.14,171.58,0c25.45,.22,50.99,7.82,50.99,7.82s2.27,.68,4.29,1.34c34.72,11.32,78.81,56.51,75.67,60.05-3.32,3.74-46.49-53.61-107.5-51.54-19.68,.67-38.12,7.41-50.07,11.78-19.39,7.09-53.23,19.47-53.01,32.4,.4,23.8,116.03,38.98,114.86,47.12-1.04,7.23-90.5-16.71-153.15,29.45-16.52,12.17-37.63,33.97-32.4,47.12,5.51,13.86,38.26,13.14,82.47,11.78,55.34-1.7,107.14-9.4,107.5-7.36,.44,2.51-77.92,14.03-104.55,48.6-10.99,14.26-17.67,32.4-17.67,32.4-5.75,15.59-8.62,23.39-5.89,26.51,11.87,13.55,98.8-70.42,138.42-47.12,25.98,15.28,22.12,71.11,26.51,70.68,4.74-.46-7-62.44,16.2-75.1,13.43-7.33,36.89,2.43,41.23,14.73Z"/>
      <g>
        <path class="cls-2" d="M157.35,212.67c-4.97-.19-9.53-.13-14.08-.08-.79,0-1.58,.04-2.34-.21-.36-.12-.72-.27-1.02-.49-.59-.43-.58-1.06-.01-1.53,.46-.38,1.01-.58,1.58-.72,1.4-.35,2.82-.65,4.21-1.06,.87-.26,1.71-.64,2.52-1.06,.99-.52,1.64-1.37,1.85-2.49,.18-.95,.36-1.9,.42-2.86,.17-2.69,.28-5.39,.41-8.08,0-.13,0-.25,.01-.38,.07-3.41,.16-6.82,.19-10.23,.06-7.18,.11-14.35,.12-21.53,0-2.42-.06-4.84-.17-7.25-.07-1.62-.25-3.24-.42-4.86-.05-.5-.23-.99-.37-1.48-.3-1.03-.97-1.74-1.96-2.09-.88-.32-1.79-.55-2.71-.76-.81-.19-1.65-.3-2.47-.47-.37-.08-.73-.22-1.08-.38-.27-.12-.54-.29-.77-.48-.71-.6-.67-1.25,.15-1.7,.43-.24,.94-.4,1.43-.47,.68-.1,1.37-.1,2.06-.11,2.77-.03,5.55,0,8.32-.07,2.75-.08,5.49-.28,8.23-.41,1.7-.08,3.41-.14,5.11-.19,1.91-.06,3.81-.11,5.72,0,3.54,.21,7.05,.67,10.35,2.02,5.29,2.16,8.73,6.02,9.9,11.63,1.07,5.14,.03,9.86-3.58,13.84-1.19,1.31-2.62,2.33-4.11,3.27-.28,.18-.57,.34-.84,.53-.36,.26-.36,.61,0,.87,.23,.16,.49,.26,.75,.38,2.16,.98,4.19,2.19,6.04,3.69,3.71,3.01,6.07,6.83,6.67,11.6,.6,4.75-.26,9.22-3,13.23-1.45,2.13-3.34,3.82-5.43,5.31-2.48,1.77-5.24,2.9-8.15,3.7-3.55,.97-7.15,1.56-10.83,1.58-2.8,.02-5.59-.08-8.39-.13-1.58-.03-3.16-.07-4.31-.09Zm3.35-25.08c.04,1.09,.09,1.95,.1,2.82,.04,3.77,.16,7.53,.5,11.28,.19,2.09,1.02,3.87,2.7,5.18,1.05,.82,2.2,1.47,3.41,2.01,1.32,.58,2.7,.92,4.15,.73,.88-.11,1.77-.21,2.63-.43,5.05-1.26,8.63-4.33,10.72-9.06,1.38-3.11,1.77-6.4,1.3-9.78-.4-2.87-1.52-5.42-3.36-7.64-2.86-3.44-6.59-5.33-10.97-6.04-1.74-.28-3.49-.37-5.24-.42-1.45-.04-2.88,.16-4.29,.57-.67,.2-1.05,.6-1.16,1.26-.13,.78-.28,1.56-.3,2.34-.09,2.47-.13,4.93-.19,7.18Zm.09-25.92c0,2.69,0,5.97,0,9.25,0,.2,0,.41,0,.61,.06,.97,.49,1.37,1.45,1.36,1.78-.02,3.55-.12,5.33-.33,2.1-.25,4.18-.59,6.21-1.13,1.15-.31,2.3-.66,3.29-1.36,1.82-1.29,3.22-2.94,4.22-4.94,1.59-3.18,1.84-6.52,1.06-9.95-1.02-4.44-3.66-7.53-7.88-9.22-3.7-1.47-7.5-1.69-11.35-.61-.87,.24-1.73,1.23-1.81,2.15-.12,1.32-.25,2.63-.29,3.95-.1,3.2-.15,6.41-.23,10.2Z"/>
        <path class="cls-2" d="M328.76,205.74c-.17,.12-.36,.25-.54,.38-2.46,1.72-4.93,3.43-7.63,4.75-2.04,.99-4.2,1.5-6.46,1.63-1.27,.07-2.54,.1-3.8-.15-4.39-.84-7.3-3.36-8.65-7.64-.32-1-.45-2.03-.45-3.08,0-4.99,0-9.98-.03-14.97-.02-3.33-.09-6.67-.17-10-.01-.63-.12-1.26-.26-1.88-.19-.8-.68-1.43-1.4-1.83-.64-.36-1.33-.64-1.99-.95-.41-.2-.83-.38-1.23-.61-.22-.12-.41-.3-.58-.49-.37-.39-.63-.85-.41-1.38,.2-.48,.65-.69,1.16-.75,.51-.05,1.01-.09,1.52-.13,1.62-.14,3.24-.25,4.86-.42,2.07-.21,4.14-.46,6.22-.68,.68-.07,.86,.03,1.09,.67,.14,.4,.23,.84,.22,1.26-.01,2.47-.07,4.94-.09,7.4-.04,3.97-.06,7.94-.1,11.91-.03,3.31-.1,6.62-.11,9.92,0,2.21,.76,4.15,2.38,5.67,1.15,1.08,2.57,1.75,4.09,2.11,2.91,.69,5.7,.4,8.29-1.21,1.11-.68,2.21-1.37,3.14-2.28,.95-.93,1.47-2.01,1.46-3.39,0-7.89,.02-15.78,.07-23.67,0-1.19-.52-2.04-1.4-2.73-.19-.15-.44-.25-.68-.32-1.51-.45-3.02-.9-4.53-1.34-.67-.2-1.3-.45-1.79-.97-.55-.58-.5-1,.19-1.4,.68-.4,1.43-.5,2.2-.53,1.32-.05,2.64-.08,3.96-.16,3.08-.17,6.13-.52,9.12-1.29,.44-.11,.91-.1,1.36-.15,.33-.03,.57,.14,.65,.42,.12,.41,.25,.84,.24,1.26-.08,2.87-.19,5.75-.29,8.62,0,.15-.01,.31-.02,.46-.07,2.82-.14,5.65-.21,8.47-.07,3-.13,6-.18,9.01-.05,3.1-.08,6.21-.13,9.31,0,.47,.04,.91,.27,1.33,.31,.54,.63,.72,1.25,.64,1.11-.14,2.21-.31,3.32-.45,.53-.07,1.06-.08,1.59-.15,.3-.04,.51,.07,.64,.31,.3,.59,.61,1.17,.85,1.78,.06,.16-.04,.45-.16,.62-.33,.46-.83,.62-1.38,.71-1.58,.26-3.17,.49-4.72,.86-2.74,.65-5.46,1.4-8.19,2.11-.17,.04-.35,.07-.52,.12-.42,.13-.84,.25-1.22-.1-.43-.4-.71-.86-.65-1.47,.12-1.16,.23-2.33,.34-3.49,.03-.3,.04-.61,.05-.91,.02-.41-.13-.69-.59-.79Z"/>
        <path class="cls-2" d="M408.68,198.85c.56-.05,.75-.44,.91-.84,.56-1.39,1.15-2.77,1.69-4.17,2.21-5.71,4.41-11.42,6.62-17.13,.25-.65,.4-1.31,.45-2,.08-1.06-.31-1.88-1.19-2.47-.73-.49-1.54-.77-2.37-1.02-.63-.19-1.27-.36-1.88-.61-.39-.16-.76-.42-1.07-.71-.57-.52-.49-1.07,.23-1.37,.5-.21,1.07-.33,1.62-.35,1.27-.05,2.54,0,3.82,0,1.45,0,2.9,.03,4.35,0,1.02-.03,2.03-.16,3.04-.21,1.22-.06,2.44-.09,3.66-.09,.32,0,.66,.08,.96,.21,.75,.32,.88,1.01,.31,1.59-.21,.21-.47,.39-.74,.52-.46,.22-.93,.41-1.41,.57-1.49,.49-2.73,1.32-3.68,2.59-.77,1.02-1.46,2.08-1.96,3.26-5.92,13.88-11.58,27.87-16.88,41.99-2.2,5.85-4.4,11.69-6.6,17.54-.48,1.29-1.48,2.05-2.64,2.62-1.51,.75-3.12,.94-4.75,.55-1.15-.27-2.1-.9-2.72-1.94-.75-1.26-1.2-2.59-.87-4.07,.38-1.7,1.33-3,2.89-3.82,.65-.34,1.35-.43,2.07-.4,1.09,.06,2.18,.12,3.28,.16,1.41,.05,1.73-.12,2.27-1.42,.9-2.16,1.79-4.32,2.61-6.5,.89-2.38,1.72-4.78,2.52-7.19,.31-.93,.48-1.92,.66-2.89,.1-.53-.04-1.06-.23-1.57-2.95-7.87-6-15.71-9.37-23.41-1.69-3.86-3.51-7.67-5.24-11.51-.73-1.62-1.9-2.74-3.55-3.36-.69-.26-1.39-.48-2.07-.77-.41-.18-.84-.39-1.17-.69-.58-.52-.5-1.27,.18-1.65,.39-.22,.85-.38,1.29-.39,1.27-.04,2.55-.06,3.81,.05,3.99,.34,7.98,.33,11.97,.15,1.04-.05,2.09-.19,3.12,.09,.36,.1,.73,.24,1.04,.44,.47,.29,.57,.73,.25,1.17-.23,.32-.55,.61-.9,.79-.54,.28-1.13,.45-1.7,.67-.59,.23-1.2,.42-1.77,.71-.79,.39-1.03,.95-.89,1.82,.21,1.32,.74,2.53,1.19,3.77,2.24,6.24,4.77,12.37,7.39,18.46,.34,.79,.73,1.57,1.1,2.35,.09,.18,.21,.34,.31,.5Z"/>
        <path class="cls-2" d="M273.46,206.73c-.69,.43-1.37,.88-2.07,1.3-2.41,1.43-4.96,2.58-7.56,3.6-.63,.25-1.32,.38-2,.47-1.23,.16-2.47,.38-3.72,.1-.68-.15-1.31-.4-1.9-.76-1.53-.93-2.61-2.25-3.43-3.8-.82-1.55-1.24-3.22-1.36-4.96-.13-1.95,.43-3.71,1.39-5.38,.7-1.21,1.66-2.09,2.91-2.71,1.85-.92,3.81-1.54,5.79-2.13,2.99-.89,6.01-1.72,9-2.61,.82-.24,1.62-.58,2.42-.91,.3-.12,.57-.34,.81-.56,.15-.15,.26-.38,.3-.59,.07-.4,.1-.81,.11-1.21,.06-2.39,.12-4.78,.16-7.17,.04-2.73-1.27-4.79-3.42-6.3-2.56-1.8-5.37-1.96-8.29-.97-.94,.32-1.49,.94-1.56,1.94-.07,.91-.16,1.83-.15,2.74,0,.82-.3,1.4-.99,1.83-2.13,1.31-4.37,2.4-6.66,3.37-.8,.34-1.38,.09-1.73-.7-.14-.31-.2-.69-.17-1.03,.08-.89,.33-1.76,.84-2.51,.51-.75,1.06-1.5,1.68-2.16,1.75-1.87,3.84-3.33,5.95-4.76,2.25-1.53,4.67-2.68,7.25-3.51,.82-.26,1.67-.46,2.52-.56,1.45-.18,2.88,.02,4.29,.41,3.01,.84,5.14,2.78,6.79,5.34,1.02,1.57,1.59,3.3,1.77,5.14,.13,1.31,.17,2.64,.2,3.96,.03,1.17-.01,2.34-.03,3.51-.06,3.1-.12,6.21-.19,9.31-.04,1.96-.1,3.92-.16,5.88-.03,.87,.07,1.72,.36,2.55,.55,1.57,1.82,2.7,3.71,2.81,.53,.03,1.1-.18,1.61-.37,.85-.32,1.68-.72,2.51-1.1,.53-.24,.78-.15,.99,.4,.28,.74,.19,1.48-.2,2.13-.37,.63-.8,1.25-1.31,1.77-1.89,1.98-4.16,3.35-6.87,3.86-2.4,.45-4.66,.06-6.57-1.6-1.01-.87-1.67-1.97-2.14-3.2-.15-.39-.3-.77-.86-.85Zm.46-9.91c0-.78,0-1.51,0-2.25,0-.38,.05-.76,.03-1.14-.02-.78-.47-1.15-1.24-1.07-.53,.06-1.06,.09-1.59,.19-2.33,.42-4.58,1.16-6.76,2.08-.82,.34-1.6,.78-2.38,1.19-.78,.41-1.28,1.06-1.52,1.91-.24,.84-.29,1.69-.24,2.56,.2,3.81,3.47,5.9,6.25,6.07,2.13,.13,4.03-.68,5.85-1.68,.17-.09,.35-.23,.45-.4,.5-.81,.89-1.66,.95-2.62,.09-1.63,.13-3.25,.2-4.84Z"/>
        <path class="cls-2" d="M228.18,182.48c-2.57,0-5.14,0-7.71,0-1.42,0-2.85-.04-4.27-.05-1.09,0-1.43,.29-1.68,1.35-.47,1.99-.42,4-.11,5.99,.45,2.91,1.41,5.66,2.95,8.19,1.32,2.17,3.12,3.8,5.31,5.04,2.16,1.21,4.47,1.9,6.96,2.03,1.95,.11,3.86-.02,5.75-.5,2.09-.53,3.83-1.59,5.1-3.38,.26-.37,.56-.73,.89-1.04,.46-.43,.94-.34,1.27,.2,.2,.33,.3,.68,.23,1.09-.18,1.1-.55,2.11-1.21,3.01-3.11,4.21-7.21,6.8-12.39,7.63-3.58,.58-7.11,.37-10.54-.83-3.35-1.17-6.1-3.19-8.29-6-2.22-2.86-3.5-6.11-4.15-9.63-.37-2.01-.55-4.04-.44-6.07,.38-6.98,3-12.92,8.34-17.53,2.98-2.57,6.43-4.15,10.33-4.74,1.31-.2,2.63-.34,3.95-.27,3.52,.18,6.76,1.2,9.52,3.43,2.25,1.81,3.68,4.18,4.34,7,.21,.92,.34,1.85,.33,2.8-.02,1.24-1.01,2.29-2.25,2.35-.48,.02-.97,0-1.45,0-3.59,0-7.18,0-10.77,0v-.06Zm-4.57-3.01v-.04c2.16-.03,4.32-.05,6.48-.1,.48,0,.97-.06,1.44-.15,1.34-.25,2.01-1.06,2.09-2.42,.08-1.27-.27-2.41-.95-3.46-1.56-2.39-3.7-3.72-6.62-3.59-2.09,.1-3.98,.8-5.65,2.03-2.1,1.54-3.56,3.6-4.52,6.01-.06,.14-.11,.28-.15,.43-.17,.71,.16,1.14,.88,1.16,2.34,.05,4.68,.09,7.02,.13Z"/>
        <path class="cls-2" d="M356.35,188.71c0-2.14-.02-4.28,0-6.41,.02-1.98,.04-3.97,.13-5.95,.04-.82-.27-1.33-.98-1.6-.87-.34-1.76-.65-2.66-.93-.57-.17-1.11-.37-1.57-.75-.6-.5-.68-1.13-.18-1.73,.18-.21,.4-.39,.62-.56,1.77-1.37,3.54-2.74,5.33-4.09,1.77-1.35,3.29-2.95,4.75-4.62,.3-.34,.62-.68,.96-.98,.39-.35,.66-.36,1.11-.1,.73,.42,1.18,.96,1.13,1.9-.07,1.37,.02,2.75-.04,4.12-.03,.76,.56,1.26,1.22,1.23,1.7-.07,3.41-.1,5.11-.15,.13,0,.25-.01,.38-.02,2.29-.07,4.58-.13,6.87-.22,.51-.02,.94,.1,1.35,.41,.33,.25,.51,.55,.54,.96,.08,1.17,.17,2.33,.27,3.5,.04,.52-.18,.87-.63,1.12-.6,.34-1.26,.36-1.92,.44-.3,.04-.61,.02-.92,.02-3.49,0-6.97,0-10.46,0-.2,0-.41-.01-.61,0-.61,.05-.97,.42-1,1.04-.06,1.3-.13,2.59-.14,3.89-.07,6.41-.13,12.83-.16,19.24,0,.73,.08,1.47,.23,2.19,.39,1.89,1.52,3.25,3.21,4.13,1.12,.59,2.32,.85,3.57,.99,2.41,.27,4.56-.46,6.63-1.58,.36-.19,.72-.39,1.1-.53,.64-.23,1.03,0,1.14,.68,.09,.52,.03,1.04-.23,1.48-.33,.57-.67,1.15-1.12,1.62-2.41,2.51-5.32,4.16-8.75,4.81-2.88,.54-5.72,.43-8.43-.85-1.56-.74-2.96-1.7-4.09-3.01-1.01-1.18-1.62-2.57-1.83-4.12-.28-2-.34-4-.2-6.01,0-.13,0-.25,0-.38,.04-3.05,.09-6.11,.13-9.16,.04,0,.07,0,.11,0Z"/>
        <path class="cls-2" d="M433.46,212.72c-1.96-.1-3.62-.76-4.92-2.27-.77-.9-1.18-1.96-1.35-3.1-.17-1.08-.15-2.17,.12-3.25,.79-3.17,4.03-4.96,6.54-4.81,1.81,.11,3.35,.73,4.45,2.14,1.56,2,2.1,4.24,1.26,6.73-.71,2.12-2.1,3.57-4.24,4.23-.6,.19-1.24,.22-1.86,.33Z"/>
      </g>
      <path class="cls-4" d="M63.6,82.03h4.4l27.77,63.61h-4.4l-8.89-20.49H49.13l-8.89,20.49h-4.4l27.77-63.61Zm-12.95,39.56h30.31l-15.15-34.92-15.15,34.92Z"/>
      <path class="cls-4" d="M241.79,82.03h4.4l27.77,63.61h-4.4l-8.89-20.49h-33.36l-8.89,20.49h-4.4l27.77-63.61Zm-12.95,39.56h30.31l-15.15-34.92-15.15,34.92Z"/>
      <path class="cls-4" d="M94.62,82.03h5.58l28.08,58.44,28.08-58.44h5.58v63.61h-3.72v-57.91h-.16l-27.92,57.91h-3.72l-27.92-57.91h-.16v57.91h-3.72v-63.61Z"/>
      <path class="cls-4" d="M165.82,82.03h46.55v3.56h-42.75v25.3h41.02v3.56h-41.02v27.62h43.25v3.56h-47.04v-63.61Z"/>
      <path class="cls-4" d="M277.37,82.03h4.96l45.6,57.91h.17v-57.91h3.94v63.61h-4.96l-45.6-57.91h-.17v57.91h-3.94v-63.61Z"/>
      <path class="cls-4" d="M341.01,82.03h4.96l45.6,57.91h.17v-57.91h3.94v63.61h-4.96l-45.6-57.91h-.17v57.91h-3.94v-63.61Z"/>
      <g>
        <path class="cls-3" d="M53.8,225.88h2.63v10.77c.18-.35,.37-.64,.56-.88,.19-.24,.38-.42,.56-.55,.37-.28,.85-.41,1.43-.41s1.13,.14,1.57,.42c.44,.28,.8,.71,1.08,1.3,.28,.59,.49,1.34,.63,2.25s.21,1.99,.21,3.24c0,2.59-.28,4.49-.83,5.7s-1.42,1.81-2.59,1.81c-.62,0-1.13-.15-1.5-.44s-.75-.83-1.13-1.61v1.83h-2.63v-23.42Zm5.96,16.36c0-1.94-.13-3.25-.39-3.94-.25-.74-.69-1.12-1.34-1.12-.61,0-1.03,.38-1.28,1.13-.25,.74-.37,2.03-.37,3.86s.12,3.11,.37,3.86c.25,.74,.68,1.12,1.28,1.12s1.07-.37,1.34-1.1c.26-.68,.39-1.95,.39-3.8Z"/>
        <path class="cls-3" d="M64.89,235.03h2.63v1.78c.45-.75,.9-1.28,1.34-1.59,.44-.3,1.02-.48,1.75-.52v2.76c-.18-.03-.34-.04-.47-.04-.95,0-1.62,.24-2.03,.73-.4,.48-.59,1.31-.59,2.51v8.64h-2.63v-14.27Z"/>
        <path class="cls-3" d="M73.67,228.96c.48,0,.89,.18,1.24,.52s.52,.77,.52,1.25-.17,.92-.52,1.27c-.35,.35-.77,.52-1.27,.52s-.92-.17-1.27-.52c-.34-.34-.51-.77-.51-1.28,0-.48,.17-.89,.52-1.24,.38-.35,.8-.52,1.28-.52Zm-1.24,6.07h2.65v14.27h-2.65v-14.27Z"/>
        <path class="cls-3" d="M77.98,235.03h2.63v1.64c.75-1.25,1.73-1.87,2.92-1.87s1.99,.45,2.48,1.36c.28,.52,.41,1.51,.41,2.99v10.15h-2.63v-9.54c-.01-.96-.13-1.65-.36-2.05-.23-.4-.63-.61-1.19-.61-.3,0-.56,.05-.76,.16-.21,.11-.37,.28-.5,.51-.13,.23-.22,.54-.28,.92-.06,.38-.09,.84-.09,1.39v9.22h-2.63v-14.27Z"/>
        <path class="cls-3" d="M94.88,235.03h2.65v14.72c0,1.76-.17,2.99-.52,3.67-.64,1.25-1.93,1.87-3.87,1.87-1.28,0-2.28-.36-3.01-1.09-.74-.74-1.1-1.72-1.1-2.96v-.44h2.56c0,1.52,.56,2.27,1.7,2.27,.62,0,1.03-.19,1.25-.58,.23-.37,.34-1.1,.34-2.19v-2.74c-.56,1.31-1.42,1.96-2.58,1.96s-2.07-.58-2.64-1.74c-.56-1.16-.85-2.97-.85-5.43,0-2.61,.27-4.54,.81-5.78,.53-1.19,1.42-1.78,2.66-1.78,.59,0,1.07,.14,1.43,.43,.37,.28,.75,.79,1.16,1.52v-1.71Zm.04,7.26c0-3.41-.59-5.11-1.76-5.11-.56,0-.97,.38-1.23,1.15-.26,.77-.39,2-.39,3.69,0,1.79,.13,3.11,.4,3.96,.28,.78,.74,1.17,1.38,1.17,.61,0,1.02-.35,1.25-1.05,.23-.65,.34-1.92,.34-3.81Z"/>
        <path class="cls-3" d="M101.69,228.96c.48,0,.89,.18,1.24,.52s.52,.77,.52,1.25-.17,.92-.52,1.27c-.35,.35-.77,.52-1.27,.52s-.92-.17-1.27-.52c-.34-.34-.51-.77-.51-1.28,0-.48,.17-.89,.52-1.24,.38-.35,.8-.52,1.28-.52Zm-1.24,6.07h2.65v14.27h-2.65v-14.27Z"/>
        <path class="cls-3" d="M106,235.03h2.63v1.64c.75-1.25,1.73-1.87,2.92-1.87s1.99,.45,2.48,1.36c.28,.52,.41,1.51,.41,2.99v10.15h-2.63v-9.54c-.01-.96-.13-1.65-.36-2.05-.23-.4-.63-.61-1.19-.61-.3,0-.56,.05-.76,.16-.21,.11-.37,.28-.5,.51-.13,.23-.22,.54-.28,.92-.06,.38-.09,.84-.09,1.39v9.22h-2.63v-14.27Z"/>
        <path class="cls-3" d="M122.9,235.03h2.65v14.72c0,1.76-.17,2.99-.52,3.67-.64,1.25-1.93,1.87-3.87,1.87-1.28,0-2.28-.36-3.01-1.09-.74-.74-1.1-1.72-1.1-2.96v-.44h2.56c0,1.52,.56,2.27,1.7,2.27,.62,0,1.03-.19,1.25-.58,.23-.37,.34-1.1,.34-2.19v-2.74c-.56,1.31-1.42,1.96-2.58,1.96s-2.07-.58-2.64-1.74c-.56-1.16-.85-2.97-.85-5.43,0-2.61,.27-4.54,.81-5.78,.53-1.19,1.42-1.78,2.66-1.78,.59,0,1.07,.14,1.43,.43,.37,.28,.75,.79,1.16,1.52v-1.71Zm.04,7.26c0-3.41-.59-5.11-1.76-5.11-.56,0-.97,.38-1.23,1.15-.26,.77-.39,2-.39,3.69,0,1.79,.13,3.11,.4,3.96,.28,.78,.74,1.17,1.38,1.17,.61,0,1.02-.35,1.25-1.05,.23-.65,.34-1.92,.34-3.81Z"/>
        <path class="cls-3" d="M136.99,225.55l2.8,.67c-1.64,5.19-2.45,9.86-2.45,14.01,0,4.68,.82,9.52,2.45,14.52l-2.8,.73c-1.75-4.98-2.62-9.99-2.62-15.03s.87-10.11,2.62-14.9Z"/>
        <path class="cls-3" d="M233.02,255.47l-2.8-.68c1.64-5.19,2.45-9.86,2.45-13.99,0-4.67-.82-9.51-2.45-14.53l2.8-.73c1.75,4.99,2.62,10,2.62,15.04s-.87,10.1-2.62,14.89Z"/>
        <path class="cls-3" d="M244.44,225.88h2.63v10.77c.18-.35,.37-.64,.56-.88,.19-.24,.38-.42,.56-.55,.37-.28,.85-.41,1.43-.41s1.13,.14,1.57,.42c.44,.28,.8,.71,1.08,1.3,.28,.59,.49,1.34,.63,2.25s.21,1.99,.21,3.24c0,2.59-.28,4.49-.83,5.7s-1.42,1.81-2.59,1.81c-.62,0-1.13-.15-1.5-.44s-.75-.83-1.13-1.61v1.83h-2.63v-23.42Zm5.96,16.36c0-1.94-.13-3.25-.39-3.94-.25-.74-.69-1.12-1.34-1.12-.61,0-1.03,.38-1.28,1.13-.25,.74-.37,2.03-.37,3.86s.12,3.11,.37,3.86c.25,.74,.68,1.12,1.28,1.12s1.07-.37,1.34-1.1c.26-.68,.39-1.95,.39-3.8Z"/>
        <path class="cls-3" d="M255.52,235.03h2.63v1.78c.45-.75,.9-1.28,1.34-1.59,.44-.3,1.02-.48,1.75-.52v2.76c-.18-.03-.34-.04-.47-.04-.95,0-1.62,.24-2.03,.73-.4,.48-.59,1.31-.59,2.51v8.64h-2.63v-14.27Z"/>
        <path class="cls-3" d="M271.32,235.03v14.27h-2.63v-1.83c-.38,.78-.75,1.32-1.13,1.61s-.87,.44-1.49,.44c-1.19,0-2.05-.61-2.61-1.82-.55-1.21-.83-3.12-.83-5.71s.28-4.29,.83-5.45,1.42-1.74,2.61-1.74c1.08,0,1.96,.62,2.62,1.85v-1.61h2.63Zm-5.95,7.07c0,1.87,.12,3.18,.37,3.93,.26,.74,.71,1.12,1.35,1.12,.59,0,1.02-.39,1.28-1.16,.27-.83,.4-2.1,.4-3.82s-.13-3.01-.4-3.83c-.27-.77-.69-1.16-1.28-1.16-.63,0-1.07,.37-1.34,1.1-.26,.68-.39,1.95-.39,3.82Z"/>
        <path class="cls-3" d="M274.26,235.03h2.63v1.64c.75-1.25,1.73-1.87,2.92-1.87s1.99,.45,2.48,1.36c.28,.52,.41,1.51,.41,2.99v10.15h-2.63v-9.54c-.01-.96-.13-1.65-.36-2.05-.23-.4-.63-.61-1.19-.61-.3,0-.56,.05-.76,.16-.21,.11-.37,.28-.5,.51-.13,.23-.22,.54-.28,.92-.06,.38-.09,.84-.09,1.39v9.22h-2.63v-14.27Z"/>
        <path class="cls-3" d="M293.78,225.88v23.42h-2.63v-1.83c-.38,.78-.75,1.32-1.13,1.61s-.88,.44-1.5,.44c-1.18,0-2.04-.6-2.59-1.81s-.83-3.11-.83-5.7c0-1.25,.07-2.33,.21-3.24s.35-1.66,.63-2.25c.28-.59,.64-1.02,1.08-1.3s.96-.42,1.57-.42,1.06,.14,1.43,.41c.18,.13,.37,.31,.57,.55,.19,.24,.38,.53,.56,.88v-10.77h2.63Zm-5.95,16.23c0,1.87,.12,3.18,.37,3.93,.26,.74,.71,1.12,1.35,1.12,.59,0,1.02-.39,1.28-1.16,.27-.83,.4-2.1,.4-3.82s-.13-3.01-.4-3.83c-.27-.77-.69-1.16-1.28-1.16-.63,0-1.07,.37-1.34,1.1-.26,.68-.39,1.95-.39,3.82Z"/>
        <path class="cls-3" d="M302.22,235.32v2.47c-.64-.48-1.32-.72-2.03-.72-.24,0-.46,.04-.66,.12-.2,.08-.38,.2-.53,.34-.15,.14-.27,.31-.36,.51-.09,.2-.13,.41-.13,.63,0,.68,.62,1.49,1.85,2.43,.5,.39,.91,.74,1.24,1.08,.33,.33,.58,.64,.76,.94,.36,.58,.54,1.31,.54,2.19,0,1.28-.37,2.3-1.12,3.07-.74,.76-1.72,1.14-2.96,1.14-.76,0-1.53-.22-2.32-.68v-2.55c.76,.57,1.48,.86,2.16,.86,1.2,0,1.81-.59,1.81-1.78,0-.44-.11-.82-.33-1.14-.1-.16-.26-.34-.48-.54-.22-.21-.49-.44-.81-.7-1.11-.86-1.87-1.59-2.26-2.18-.39-.61-.58-1.34-.58-2.19,0-1.15,.35-2.09,1.06-2.83,.72-.73,1.65-1.09,2.8-1.09,.81,0,1.59,.21,2.36,.62Z"/>
        <path class="cls-3" d="M313.37,231.03h2.63v4h1.43v2.09h-1.43v12.17h-2.63v-12.17h-1.45v-2.09h1.45v-4Z"/>
        <path class="cls-3" d="M327.64,242.28c0,4.82-1.49,7.24-4.48,7.24s-4.48-2.45-4.48-7.35,1.49-7.38,4.47-7.38c.77,0,1.44,.15,2.01,.44,.57,.29,1.03,.75,1.4,1.36,.37,.62,.64,1.39,.82,2.33,.18,.94,.27,2.05,.27,3.35Zm-2.73-.07c0-1.87-.12-3.18-.37-3.92-.25-.74-.69-1.12-1.32-1.12s-1.07,.37-1.34,1.1c-.25,.74-.37,2.02-.37,3.85s.12,3.11,.37,3.83c.27,.73,.71,1.1,1.34,1.1s1.06-.36,1.31-1.09c.26-.68,.39-1.93,.39-3.76Z"/>
        <path class="cls-3" d="M336.98,225.88h2.63v23.42h-2.63v-23.42Z"/>
        <path class="cls-3" d="M343.79,228.96c.48,0,.89,.18,1.24,.52s.52,.77,.52,1.25-.17,.92-.52,1.27c-.35,.35-.77,.52-1.27,.52s-.92-.17-1.27-.52c-.34-.34-.51-.77-.51-1.28,0-.48,.17-.89,.52-1.24,.38-.35,.8-.52,1.28-.52Zm-1.24,6.07h2.65v14.27h-2.65v-14.27Z"/>
        <path class="cls-3" d="M347.1,235.03h1.32v-4.98c0-1.63,.24-2.78,.72-3.45s1.31-1.01,2.5-1.01c.51,0,1.11,.12,1.79,.37v2.78c-.42-.23-.8-.34-1.12-.34-.45,0-.77,.13-.96,.4-.19,.27-.28,.72-.28,1.35v1.07s-.01,3.79-.01,3.79h2.23v2.09h-2.23v12.17h-2.63v-12.17h-1.32v-2.09Z"/>
        <path class="cls-3" d="M360.51,244.49h2.45c-.19,3.35-1.57,5.03-4.14,5.03-.76,0-1.42-.14-1.96-.43s-1-.73-1.36-1.32-.62-1.36-.79-2.27-.25-2.01-.25-3.28c0-2.52,.35-4.38,1.05-5.6,.7-1.21,1.79-1.82,3.26-1.82,2.86,0,4.29,2.52,4.29,7.55v.33h-6.02c0,3.05,.61,4.58,1.82,4.58,1.1,0,1.65-.92,1.65-2.77Zm-.14-3.71c-.11-1.5-.28-2.48-.51-2.95-.24-.52-.62-.79-1.16-.79s-.93,.26-1.16,.79c-.23,.47-.4,1.45-.51,2.95h3.34Z"/>
      </g>
      <g>
        <path class="cls-2" d="M144.07,229.53c.15-.25,.33-.44,.62-.53,.5-.15,.99-.33,1.48-.5,.38-.13,.74-.3,1.08-.51,.17-.1,.36-.18,.54-.25,.17-.07,.26-.04,.37,.1,.1,.13,.17,.27,.12,.44-.01,.05-.01,.1-.01,.15-.03,.66-.05,1.32-.08,1.98-.04,.94-.09,1.88-.12,2.82-.03,.98-.05,1.96-.06,2.94,0,.67,0,1.34,.01,2.01,0,.16,.02,.32,.05,.48,.03,.18,.12,.21,.27,.13,.26-.13,.51-.28,.77-.39,.61-.28,1.26-.48,1.92-.57,.55-.08,1.11-.11,1.68-.04,.71,.09,1.4,.26,2.04,.58,1.54,.75,2.55,1.97,3.08,3.59,.31,.96,.39,1.95,.28,2.94-.16,1.45-.72,2.74-1.67,3.85-.63,.74-1.37,1.35-2.25,1.78-.65,.32-1.34,.52-2.05,.64-.36,.06-.73,.1-1.1,.11-.39,0-.78-.01-1.17-.06-.61-.08-1.23-.18-1.84-.29-.38-.07-.76-.16-1.14-.26-.25-.07-.49-.06-.74,.03-.13,.05-.27,.09-.4,.12-.1,.02-.18-.02-.21-.12-.03-.11-.06-.22-.05-.32,.03-.64,.07-1.28,.09-1.92,.02-.55,.02-1.1,.03-1.65,.09-3.88,.06-7.76,.04-11.64,0-.88-.04-1.76-.06-2.64-.01-.38-.03-.76-.06-1.14-.02-.29-.17-.53-.35-.75-.24-.3-.54-.53-.85-.76-.11-.08-.23-.16-.27-.34Zm3.95,12.46c.02,.85,.04,1.61,.07,2.36,0,.09,0,.18,0,.27,.07,.93,.16,1.85,.21,2.78,.05,.75,.38,1.34,.97,1.79,.68,.52,1.45,.85,2.28,1.01,.3,.06,.61,.05,.91-.09,.4-.17,.76-.41,1.11-.66,.39-.28,.71-.62,.93-1.05,.75-1.42,1.09-2.92,.85-4.52-.13-.85-.39-1.65-.84-2.39-.23-.38-.47-.75-.8-1.05-.64-.57-1.39-.93-2.22-1.13-.55-.13-1.11-.15-1.67-.11-.44,.03-.87,.13-1.27,.34-.31,.16-.46,.4-.48,.74-.02,.6-.05,1.2-.07,1.7Z"/>
        <path class="cls-2" d="M194.35,238.63c.17-.23,.42-.25,.65-.27,.27-.03,.54-.04,.81-.05,1.04-.02,2.08-.14,3.09-.4,.11-.03,.24-.04,.36-.04,.19,0,.23,.02,.29,.19,.02,.07,.04,.16,.04,.23,0,.31,0,.62-.02,.93,0,.19-.03,.38-.04,.57-.03,.78-.05,1.56-.08,2.34-.02,.6-.04,1.2-.06,1.8-.02,.87-.04,1.74-.06,2.61-.02,.81-.03,1.62-.05,2.43,0,.16,.03,.29,.12,.43,.09,.13,.21,.18,.36,.16,.44-.05,.88-.09,1.31-.15,.21-.03,.35,.04,.44,.23,.06,.13,.12,.25,.18,.37-.07,.24-.24,.33-.45,.35-1.1,.12-2.16,.41-3.22,.71-.22,.06-.45,.11-.67,.16-.17,.04-.27,0-.35-.15-.05-.1-.09-.23-.09-.34,.02-.4,.06-.8,.1-1.2,.01-.11,.02-.22-.07-.31-.13-.03-.2,.07-.29,.12-.58,.38-1.16,.76-1.74,1.13-.72,.45-1.5,.68-2.35,.75-.62,.05-1.22,.03-1.8-.2-1.13-.44-1.83-1.26-2.03-2.47-.03-.2-.04-.4-.04-.6,0-1.74,0-3.49-.02-5.23,0-.77-.03-1.54-.05-2.31-.01-.44-.21-.76-.61-.96-.19-.09-.39-.16-.57-.26-.17-.09-.34-.18-.48-.3-.21-.19-.16-.39,.11-.51,.05-.02,.11-.04,.17-.05,.25-.02,.5-.03,.75-.06,.53-.05,1.05-.11,1.58-.17,.36-.04,.71-.09,1.07-.13,.27-.03,.39,.06,.44,.33,.01,.07,.01,.14,.01,.21,0,1.47-.01,2.95-.02,4.42-.01,1.38-.03,2.77-.06,4.15,0,.35,.05,.69,.18,1.03,.16,.42,.43,.74,.79,.99,.5,.35,1.06,.5,1.66,.53,1.16,.06,2.09-.44,2.91-1.21,.1-.09,.18-.21,.26-.33,.12-.18,.18-.37,.18-.59,0-.88,0-1.76,.01-2.65,.01-1.47,.03-2.95,.05-4.42,0-.51-.26-.84-.76-.97-.39-.1-.78-.19-1.16-.31-.18-.05-.35-.14-.52-.22-.13-.06-.22-.17-.26-.34Z"/>
        <path class="cls-2" d="M222.83,238.17c.36,.02,.72,.04,1.08,.04,.29,0,.58-.03,.87-.05,.34-.02,.68-.05,1.02-.06,.21,0,.42,0,.63,0,.14,0,.26,.05,.31,.19,.05,.13-.01,.28-.16,.39-.06,.05-.14,.08-.21,.12-.06,.03-.13,.06-.19,.08-.84,.22-1.33,.83-1.66,1.58-1.27,2.93-2.5,5.89-3.66,8.87-.71,1.82-1.38,3.67-2.07,5.5-.42,1.12-.85,2.24-1.24,3.38-.19,.53-.56,.81-1.06,.97-.36,.11-.73,.13-1.1,.06-.24-.05-.46-.17-.62-.35-.68-.76-.6-1.87,.31-2.44,.17-.11,.36-.17,.57-.17,.38,0,.76,0,1.14,.01,.27,.01,.43-.09,.54-.33,.64-1.45,1.19-2.92,1.65-4.44,.07-.22,.11-.45,.15-.67,.04-.19-.02-.38-.09-.56-.57-1.49-1.12-2.99-1.72-4.48-.74-1.85-1.54-3.67-2.4-5.47-.07-.15-.15-.31-.23-.45-.21-.36-.51-.61-.9-.76-.24-.09-.49-.19-.72-.29-.11-.05-.21-.12-.3-.19-.11-.1-.12-.24,0-.34,.08-.07,.17-.15,.27-.17,.17-.04,.36-.06,.53-.05,.59,.02,1.18,.07,1.77,.1,.91,.05,1.82-.01,2.73-.02,.13,0,.26,0,.39,0,.1,0,.2,.03,.29,.07,.29,.12,.33,.34,.08,.55-.08,.07-.18,.12-.28,.16-.18,.07-.36,.12-.54,.18-.11,.04-.23,.08-.33,.13-.25,.13-.33,.3-.26,.57,.11,.37,.23,.74,.36,1.11,.69,1.96,1.49,3.88,2.31,5.79,.08,.19,.17,.38,.27,.57,.06,.11,.16,.12,.24,.02,.05-.06,.08-.14,.11-.21,.66-1.67,1.31-3.35,1.97-5.03,.17-.45,.33-.9,.49-1.35,.06-.18,.12-.36,.15-.55,.07-.37-.07-.67-.4-.87-.25-.15-.53-.22-.81-.31-.21-.07-.41-.15-.61-.24-.11-.05-.21-.14-.19-.28,.02-.15,.14-.22,.27-.25,.14-.04,.29-.06,.44-.07,.26-.01,.52,0,.78,0,0,0,0,0,0,0Z"/>
        <path class="cls-2" d="M185.1,248.84c.19,.17,.26,.4,.13,.64-.1,.2-.22,.41-.37,.57-.49,.55-1.1,.92-1.81,1.13-1.16,.33-2.2-.2-2.65-1.23-.03-.06-.06-.13-.09-.19-.1-.24-.16-.27-.37-.13-.56,.38-1.15,.7-1.76,.97-.4,.18-.81,.35-1.23,.46-.34,.1-.71,.13-1.07,.15-.3,.01-.6-.07-.86-.24-.32-.21-.6-.46-.81-.79-.4-.63-.66-1.31-.6-2.07,.07-.91,.45-1.65,1.29-2.1,.59-.32,1.23-.49,1.86-.68,.89-.27,1.79-.52,2.68-.79,.21-.06,.41-.16,.61-.25,.17-.08,.25-.21,.25-.41,.01-.75,.02-1.5,.06-2.25,.03-.64-.2-1.18-.62-1.64-.43-.47-.96-.73-1.59-.82-.38-.05-.74,0-1.1,.07-.13,.03-.25,.08-.37,.13-.25,.1-.38,.29-.4,.55-.02,.26-.09,.51-.03,.78,.04,.16-.03,.3-.13,.41-.05,.06-.11,.12-.18,.16-.57,.35-1.16,.67-1.79,.92-.33,.13-.59-.06-.58-.42,.01-.37,.15-.71,.38-.99,.26-.32,.53-.63,.85-.89,.8-.68,1.67-1.28,2.65-1.69,.45-.19,.91-.36,1.4-.42,.44-.05,.88,.02,1.31,.14,.77,.22,1.34,.7,1.79,1.34,.36,.5,.56,1.06,.61,1.67,.02,.32,.06,.64,.05,.96-.02,1.48-.05,2.97-.08,4.45,0,.48-.03,.96-.05,1.44-.01,.3,.06,.58,.18,.84,.23,.52,.88,.83,1.37,.65,.35-.13,.7-.27,1.09-.42Zm-4.85-2.16s0,0-.01,0c0-.33,0-.66,0-.99,0-.22-.1-.31-.31-.31-.16,0-.32,0-.48,.03-.93,.17-1.82,.48-2.67,.86-.58,.26-.81,.73-.79,1.33,.02,.74,.38,1.3,1.04,1.64,.39,.2,.79,.3,1.24,.26,.51-.05,.96-.25,1.42-.47,.11-.05,.21-.16,.28-.26,.13-.2,.22-.43,.23-.67,.03-.47,.05-.94,.08-1.41Z"/>
        <path class="cls-2" d="M169.44,242.3c-1.95,0-3.89-.02-5.84-.02-.05,0-.1,0-.15,0-.29,0-.4,.07-.47,.36-.07,.3-.12,.61-.14,.92-.03,.59,.08,1.18,.23,1.75,.22,.8,.57,1.54,1.08,2.19,.49,.62,1.12,1.05,1.85,1.35,.53,.22,1.1,.34,1.67,.33,.68,0,1.36-.04,2-.34,.39-.18,.72-.43,.97-.78,.08-.11,.16-.23,.26-.33,.18-.17,.35-.13,.43,.11,.03,.09,.04,.2,.02,.29-.05,.33-.18,.63-.39,.9-.81,1.04-1.85,1.74-3.14,2.03-.6,.13-1.2,.19-1.82,.14-.52-.04-1.03-.12-1.53-.28-1.1-.36-1.98-1.02-2.67-1.96-.64-.88-1-1.87-1.15-2.93-.06-.41-.1-.84-.11-1.25-.02-1.09,.24-2.12,.68-3.11,.42-.93,1.02-1.73,1.79-2.38,.67-.57,1.44-.98,2.29-1.22,.67-.19,1.35-.31,2.05-.24,1.48,.15,2.69,.76,3.47,2.07,.25,.42,.38,.88,.43,1.36,.01,.1,.03,.2,.04,.3,.04,.38-.17,.66-.54,.74-.12,.02-.24,.03-.36,.03-.32,0-.64,0-.96,0,0,0,0-.01,0-.02Zm-3.84-.89c.57,0,1.14,0,1.71,0,.27,0,.54-.01,.81-.05,.36-.05,.61-.19,.63-.66,.02-.34-.05-.66-.23-.94-.6-.93-1.42-1.24-2.45-1.08-.8,.12-1.46,.52-2,1.12-.31,.36-.55,.76-.72,1.2-.09,.24,0,.39,.27,.41,.04,0,.08,0,.12,0,.62,0,1.24,0,1.86,0Z"/>
        <path class="cls-2" d="M206.86,244.52c0,.89,0,1.78,0,2.68,0,.26,.02,.52,.09,.77,.17,.62,.6,1.01,1.19,1.21,.93,.32,1.83,.22,2.7-.23,.12-.06,.25-.13,.37-.2,.11-.06,.24-.1,.34-.02,.11,.09,.14,.23,.1,.38-.06,.25-.19,.47-.36,.65-.71,.71-1.54,1.2-2.54,1.41-.63,.13-1.26,.17-1.87,0-.94-.26-1.72-.75-2.16-1.68-.18-.37-.26-.76-.26-1.16,0-1.09,.02-2.18,.03-3.28,0-.57,0-1.14,.02-1.71,.02-.91,.03-1.82,.06-2.73,0-.26-.08-.42-.32-.51-.26-.1-.52-.2-.78-.3-.17-.07-.33-.14-.48-.24-.13-.08-.15-.18-.07-.31,.07-.12,.17-.22,.27-.31,.44-.36,.89-.72,1.33-1.08,.46-.37,.9-.76,1.28-1.23,.11-.14,.24-.27,.37-.4,.09-.09,.18-.2,.34-.12,.18,.08,.35,.18,.35,.41,0,.32,0,.64,0,.96,0,.13,0,.26,0,.39,.01,.25,.15,.36,.39,.36,.56-.02,1.12-.03,1.68-.05,.69-.02,1.38-.05,2.07-.08,.26-.01,.46,.13,.49,.4,.04,.33,.07,.66,.09,.98,.01,.17-.06,.3-.23,.34-.19,.05-.39,.1-.59,.1-.67,.01-1.34,0-2.02,0-.45,0-.9,0-1.35,0-.08,0-.16,0-.24,.02-.19,.04-.25,.12-.26,.31,0,.03,0,.06,0,.09-.02,1.39-.05,2.79-.07,4.18,0,0,0,0,.01,0Z"/>
      </g>
    </g>
  </g>
</svg>