<?xml version="1.0" encoding="UTF-8"?><svg id="Layer_2" xmlns="http://www.w3.org/2000/svg" viewBox="0 0 1000.82 887.04"><defs><style>.cls-1{stroke:#000;stroke-miterlimit:10;stroke-width:1.27px;}</style></defs><g id="Layer_1-2"><path d="m388.03,571.24l-93.22-276.16-100.23,276.16-5.82,16.33-58.25,160.79c-31.47,90.91,30.28,94.4,13.98,138.68H0c16.3-45.45,81.55-47.77,115.34-143.34L381.02,13.08h16.33l256.36,767.91c34.94,68.76,75.74,58.28,86.21,106.05h-309.95c-15.14-45.45,47.77-47.77,16.3-143.34l-52.43-156.13-5.82-16.33Z"/><path d="m291.47,490.82l10.12,42.26c6.22,25.99,26.52,46.29,52.51,52.51l42.26,10.12-42.26,10.12c-25.99,6.22-46.29,26.52-52.51,52.51l-10.12,42.26-10.12-42.26c-6.22-25.99-26.52-46.29-52.51-52.51l-42.26-10.12,42.26-10.12c25.99-6.22,46.29-26.52,52.51-52.51l10.12-42.26Z"/><path class="cls-1" d="m566.32,81.83l-9.52-.15-6.63-16.99-43.45-.68-1.03,2.34-6.09,14.44-7.13-.11,1.64-3.93,29.81-70.39-5.52-5.69,16.42.26.72,1.91,29.02,75,1.75,4Zm-19.32-25.38l-17.76-46.6-19.82,47.64,38.15.6-.57-1.63Z"/><path class="cls-1" d="m655.07,101.61l-8.52-2.04.36-2.73,9.13-56.85-38.79,43.07-15.85-59.51-19.86,60.45-6.4-1.53,1.05-3.05,22.15-68.24-4.24-6.9,11.61,2.78.79,1.8,15.16,55.82,36.8-40.71-3.09-5.02,12.18,2.91-.42,2.74-12.08,77.01Z"/><path class="cls-1" d="m680.37,106.06l41.83,19.7-7.58,4-45.09-21.23,31.82-67.58-2.76-7.67,5.22,2.46h0s49.81,23.44,49.81,23.44l-7.53,3.73-37.16-17.49-10.49,22.3,41.36,19.47-7.53,3.7-36.62-17.24-15.28,32.41Z"/><path class="cls-1" d="m785.37,178.29l-7.72-5.59,4.32-17.73-35.21-25.49-2.19,1.32-13.27,8.33-5.77-4.18,3.6-2.28,64.8-40.56-1.26-7.83,13.3,9.63-.5,1.98-19.25,78.09-.86,4.28Zm-1.26-31.87l12.18-48.37-43.57,27.66,30.91,22.37.47-1.66Z"/><path class="cls-1" d="m896.95,179.77l-59.23,54.48-4.42-4.8.31-1.49,12.11-77.98-46.32,42.62-5.94-6.45,55.05-50.64.33-8,3.84,4.17h.01s2.16,2.34,2.16,2.34l-.06.41-12.39,83.64,44.34-40.79.34-8.19,3.93,4.27h0s5.92,6.43,5.92,6.43Z"/><path class="cls-1" d="m951.9,266.32l-69.52,40.55-3.29-5.64.63-1.39,28.52-73.59-54.38,31.73-4.42-7.57,64.61-37.69,2.04-7.75,2.86,4.9h.01s1.61,2.75,1.61,2.75l-.14.38-30,79.05,52.04-30.36,2.09-7.93,2.92,5.01h0s4.41,7.55,4.41,7.55Z"/><path class="cls-1" d="m942.63,484.99c-11.93.8-22.33-8.84-23.18-21.5l-2.72-40.49,74.79-5.03,5.54-6.33.4,5.93h0s2.09,31.09,2.09,31.09c.9,13.31-8.58,24.82-21.13,25.67-6.04.4-11.89-1.7-16.49-5.93-2.43,9.33-10.21,15.98-19.29,16.59Zm-19.25-53.67l2.13,31.76c.53,7.85,7.84,13.76,16.3,13.19,8.47-.57,14.92-7.41,14.39-15.26l-2.14-31.76-30.69,2.07Zm54.43,34.27c8.92-.6,15.71-8,15.14-16.5l-1.5-22.36-32.34,2.18,1.51,22.36c.57,8.49,8.29,14.92,17.2,14.32Z"/><path class="cls-1" d="m925.16,513.55l-5.85,45.86-6.14-5.98,6.31-49.43,74.09,9.45,6.45-4.99-.73,5.72h0s-6.97,54.6-6.97,54.6l-5.86-6.02,5.2-40.74-24.45-3.1-5.79,45.34-5.84-6.02,5.12-40.15-35.54-4.55Z"/><path class="cls-1" d="m887.75,637.75l3.01-9.04,18.2-1.21,13.72-41.23-1.92-1.69-11.94-10.15,2.25-6.76,3.25,2.75,58.16,49.59,7.08-3.55-5.18,15.58-2.04.12-80.25,5.13-4.34.47Zm30.01-10.78l49.78-2.93-39.46-33.23-12.04,36.2,1.73-.05Z"/><path class="cls-1" d="m922.86,736.51l-40.46-22.12c-15.91-8.73-21.58-29.09-12.64-45.38,8.94-16.29,29.16-22.44,45.06-13.71l37.39,20.44,7.66-2.23-6.5,11.85h0s-.42.76-.42.76l-42.34-23.14c-12.01-6.59-27.16-2.14-33.77,9.92-7.86,14.32-4.39,28.74,8.63,35.89l37.15,20.3,8.05-2.35-2.85,5.18h0s-3.08,5.61-3.08,5.61h0s-.58,1.06-.58,1.06l-1.29-2.09Z"/><path class="cls-1" d="m876.54,799.85l-2.44-7.42,13.07-16.28-57.83-46.43,5.48-6.83,57.83,46.43,13.37-16.65,7.31,1.35-36.79,45.83Z"/><path class="cls-1" d="m823.13,850.83l-10.45-53.1c-.03-.22-.11-.39-.24-.52l-23.45-25.08,6.81-6.37,23.45,25.08c.12.13.28.22.48.26l45.58,12.2,9.44-.82-8.89,8.33-44.61-11.33,7.64,39.24,7.78-.68-13.54,12.8Z"/><path d="m938.81,325.86l3.15,6.15c1.94,3.79,5.84,6.16,10.1,6.15l6.92-.02-6.15,3.15c-3.79,1.94-6.16,5.84-6.15,10.1l.02,6.92-3.15-6.15c-1.94-3.79-5.84-6.16-10.1-6.15l-6.92.02,6.15-3.15c3.79-1.94,6.16-5.84,6.15-10.1l-.02-6.92Z"/></g></svg>