<?xml version="1.0" encoding="UTF-8"?><svg id="Layer_2" xmlns="http://www.w3.org/2000/svg" viewBox="0 0 1500 458.62"><defs><style>.cls-1{fill:none;}</style></defs><g id="Layer_1-2"><path class="cls-1" d="m740.65,118.46c-1.55-4.29-4.62-8.26-7.76-11.66-1.97-2.14-5.25-3.66-8.17-4.2-7.94-1.47-15.07.73-21.1,6.28-5.9,5.43-10.34,11.87-13.53,19.2-8.03,18.44-10.41,37.76-9.12,58.45h53.14c11.23-21.84,15.08-44.4,6.54-68.07Z"/><path class="cls-1" d="m923.74,181.97c-1.46.14-2.5.11-3.47.36-12.42,3.28-22.43,10.37-30.12,20.44-8.91,11.67-13.54,24.98-11.74,39.82,1.53,12.57,8.81,20.69,19.14,21.96,9.37,1.16,18.18-.76,26.19-5.4v-77.18Z"/><path d="m599.39,272.64c-11.54-10.5-15.35-23.86-15.2-39.05.26-26.65.17-53.31.04-79.96-.08-16.85-6.14-31.36-18.35-43.01-25-23.84-72.33-22.08-95.17,15.42-2.74,4.5-4.76,9.44-7.45,14.85-6.8-26.73-25.6-42.48-49.72-45.36-27.8-3.32-52.95,9.22-68.07,41.43v-41.64c-22.37,3.71-80.43,17.64-85.9,20.55.21,5.56.67,6.93,5.95,10.87,10.12,7.55,14.27,17.57,14.17,30.06-.23,28.5-.03,57-.13,85.51-.01,3.38-.62,6.8-1.37,10.11-1.62,7.16-5.75,12.91-10.89,17.97-3.96,3.9-7.31,8.12-8.11,13.95.82.58,1.43,1.41,2.05,1.41,34.7.06,69.41.06,104.02.06,1.36-3.1.85-5.55-.85-7.77-2.07-2.71-3.97-5.63-6.41-7.97-8.71-8.33-12.42-18.63-12.45-30.44-.04-20.59.16-41.17-.08-61.75-.14-12.3,2.14-24.1,6.61-35.41,3.89-9.82,8.95-19.07,17.25-26.05,11.24-9.45,20.15-7.14,25.51,6.54,3.11,7.94,4.27,16.26,4.38,24.66.22,16.89,0,33.78.09,50.67.06,12.66.33,25.32.45,37.98.12,12.79-2.61,24.5-12.62,33.53-1.93,1.74-3.37,4.03-4.97,6.12-2.11,2.75-3.74,5.67-3.06,9.31,7.41,1.23,99.59,1.12,105.78-.11,1.56-1.96.93-4.05-.26-5.79-1.91-2.81-3.94-5.59-6.29-8.03-8.81-9.12-13.42-19.69-13.21-32.61.34-21.11.14-42.22.07-63.34-.05-15.91,4.19-30.69,11.86-44.44,3.84-6.89,8.58-13.27,15.52-17.57,7.51-4.66,14.88-2.94,19.45,4.71,1.2,2.01,2.4,4.2,2.86,6.45,1.35,6.66,3.24,13.39,3.3,20.11.34,32.99.14,65.98.16,98.96,0,6.5-1.71,12.53-5.3,17.87-2.34,3.47-5.1,6.68-7.91,9.8-3.52,3.91-6.78,7.85-7.1,13.88,1.74.35,3.21.85,4.68.9,30.35,1.15,96.44.44,102.47-1.07.08-5.05-2.18-9-5.8-12.29Z"/><path d="m1280,127.45c7.68,6.16,13.22,13.5,13.39,23.91.05,2.88.68,5.74.69,8.62.06,26.13-.02,52.25.06,78.38.04,12.41-3.63,23.21-12.75,31.95-2.26,2.17-4.38,4.64-5.94,7.33-1.23,2.12-1.51,4.79-2.32,7.57,1.77.39,2.75.78,3.72.78,33.2.03,66.39.05,99.58-.03,1.36,0,2.72-.92,4.06-1.41-.82-6.07-4.1-10.15-7.86-13.84-8.96-8.78-13-19.21-12.73-31.9.46-21.37-.02-42.75.22-64.12.07-6.53.54-13.2,2-19.53,3.17-13.74,8.64-26.61,18.76-36.76,13.55-13.59,23.68-7.95,28.71,7.02,2.35,6.98,3.57,14.25,3.57,21.68-.02,31.93.08,63.86-.11,95.79-.03,4.38-.57,9.17-2.45,13.01-2.61,5.34-6.44,10.17-10.23,14.81-3.47,4.25-7.28,8.12-7.49,14.01,6.1,1.72,99.87,1.84,107.12.06-.74-2.46-1.13-5.05-2.29-7.24-1.22-2.28-2.94-4.43-4.85-6.18-10.21-9.36-13.99-21.07-13.85-34.69.26-25.59.17-51.19,0-76.79-.04-6.02-.43-12.15-1.63-18.02-6.59-32.13-32.85-48.2-61.06-46.71-23.56,1.24-40.99,13.08-52.63,33.58-.78,1.37-1.73,2.63-2.6,3.94-.4-.13-.79-.26-1.19-.39v-37.46c-29.57,6.84-58.31,13.48-86.99,20.12.23,6.09,3.32,9.5,7.09,12.52Z"/><path d="m1038.08,268.53c-2.56,2.63-5.09,5.4-7.03,8.48-1.55,2.46-3.59,5.27-2.03,8.28.77.39.99.61,1.22.61,33.71.05,67.41.1,101.12.06,1.37,0,2.73-.91,4.02-1.37-1.58-7.34-1.53-7.39-7.69-13.79-8.62-8.95-12.98-19.38-12.79-32,.32-21.36.05-42.73.09-64.1.04-19.87,6.36-37.69,18.27-53.42,2.62-3.45,6.34-6.38,10.12-8.57,6.89-3.99,13.24-2.15,17.69,4.57,1.43,2.16,2.53,4.6,3.42,7.05,2.53,6.98,3.49,14.22,3.64,21.64.38,18.42-.62,36.83.88,55.27,1,12.32.48,24.79.1,37.17-.29,9.52-1.92,18.88-8.22,26.61-2.33,2.85-4.84,5.56-7.43,8.17-3.26,3.29-5.19,7.07-5.21,11.75,5.68,1.35,94.55,1.72,105.81.42.92-2.52.73-4.99-.94-7.27-1.71-2.31-3.28-4.81-5.34-6.77-10.02-9.51-13.82-21.34-13.78-34.86.09-26.91-.06-53.81.08-80.72.05-9.66-1.92-18.86-5.96-27.48-8.26-17.58-21.98-28.41-41.21-31.93-21.98-4.03-40.91,1.63-56.81,17.57-5.84,5.85-10.09,12.68-15.1,19.61v-38.69c-29.23,6.73-57.66,13.28-85.76,19.76-1.4,3.67-.62,6.28,1.63,8.52,2.04,2.03,3.86,4.47,6.25,5.94,3.81,2.35,5.98,5.78,7.97,9.51,3.05,5.7,3.96,11.88,3.97,18.23.01,28.22.02,56.45,0,84.67,0,10.48-3.62,19.5-10.97,27.05Z"/><path d="m1000.98,269.03c-5.77-5.8-9.37-12.71-10.57-20.69-.89-5.95-1.32-12.01-1.36-18.03-.15-23.49-.13-46.98-.03-70.46.05-9.55-2.8-18.14-7.88-26.04-7.62-11.86-18.25-20.34-30.85-26.24-25.43-11.91-52.12-15.66-79.8-10.8-11.16,1.97-21.88,5.44-31.3,12.23-11.59,8.35-16.27,19.63-14.5,33.61.49,3.87,2.26,7.41,4.82,10.62,8.32,10.46,25.12,11.62,36.08,5.89,8.75-4.56,16.89-14.41,12.47-28.26-1.55-4.87-1.8-10.36-1.62-15.54.24-6.93,5.84-12.18,12.71-12.94,5.42-.6,10.45.47,14.94,3.73,6.41,4.65,10.44,11.06,13.48,18.17,4.28,10.04,5.6,20.75,6.5,31.46.54,6.46.1,13,.1,19.32-9.45,1.35-18.01,2.43-26.52,3.8-17.13,2.76-33.96,6.78-49.8,14.05-11.13,5.1-21.26,11.9-27.94,22.41-12.82,20.16-8.31,51.97,20.92,64.6,11.14,4.81,22.87,6.35,35.23,5.24,12.31-1.1,23.62-4.58,34.45-10.05,4.42-2.23,8.48-5.16,13.03-7.98.26,1.36.49,2.34.63,3.33,1.63,12.03,5.45,15.52,17.39,15.55,20.81.06,41.62.04,62.44-.01,2,0,4-.37,6.15-.59-.03-7.65-4.78-11.98-9.17-16.38Zm-77.24-9.88c-8.01,4.64-16.82,6.56-26.19,5.4-10.33-1.27-17.61-9.39-19.14-21.96-1.8-14.84,2.83-28.15,11.74-39.82,7.69-10.07,17.7-17.16,30.12-20.44.97-.25,2.01-.22,3.47-.36v77.18Z"/><path d="m790.47,247.7c-7.16,2.51-14.23,5.29-21.47,7.54-11.99,3.72-24.41,4.63-36.63,2.32-16.5-3.12-29.13-12.35-37.99-26.9-6.93-11.39-10.84-23.59-12.68-37.35h110.24c4.84-21.93,3.57-42.16-6.88-61.33-10.74-19.68-27.04-31.82-49.21-35.47-23.36-3.85-46.15-.73-67.8,8.35-23.41,9.83-39.54,27.01-47.56,51.54-5.62,17.18-6.17,34.65-2.84,52.13,5.97,31.31,23.44,54.02,52.65,67.15,18.48,8.31,37.81,11.55,58.12,9.32,25.16-2.77,46.12-13.37,62.89-32.3,1.29-1.46,2.15-3.3,3.99-6.17-2.52.61-3.71.78-4.83,1.17Zm-100.38-119.62c3.19-7.33,7.63-13.77,13.53-19.2,6.03-5.55,13.16-7.75,21.1-6.28,2.92.54,6.2,2.06,8.17,4.2,3.14,3.4,6.21,7.37,7.76,11.66,8.54,23.67,4.69,46.23-6.54,68.07h-53.14c-1.29-20.69,1.09-40.01,9.12-58.45Z"/><path d="m212.89,250.5L129.4,0h-5.32L37.56,238.34c-11,31.18-32.25,31.93-37.56,46.76h47.06c5.31-14.44-14.8-15.58-4.55-45.24l18.97-52.45,1.9-5.33,32.64-90.09,30.36,90.09,1.9,5.33,17.07,50.93c10.25,31.18-10.24,31.93-5.31,46.76h100.94c-3.41-15.58-16.7-12.16-28.08-34.59Z"/><path d="m98.22,169.63l-3.3-13.78-3.3,13.78c-2.03,8.48-8.64,15.1-17.1,17.13l-13.76,3.3,13.76,3.3c8.47,2.03,15.08,8.65,17.1,17.13l3.3,13.78,3.3-13.78c2.03-8.48,8.64-15.1,17.1-17.13l13.76-3.3-13.76-3.3c-8.47-2.03-15.08-8.65-17.1-17.13Z"/><path d="m996.92,403.79l-1.48-.79,1.04-1.29c4.03-5.18,6.16-11.35,6.16-17.84,0-16.67-14.36-30.23-32-30.23h-50.78s10.13,10.11,10.13,10.11v94.15h52.36c16.83,0,30.53-12.94,30.53-28.84,0-10.57-6.11-20.25-15.96-25.27Zm-52.34-38.23h26.06c9.59,0,17.4,8.22,17.4,18.32,0,4.9-1.82,9.5-5.13,12.97-1.65,1.72-3.55,3.05-5.63,3.95-2.1.92-4.33,1.38-6.64,1.38h-26.06v-36.63Zm37.77,81.07h-37.77v-34.58h37.77c8.78,0,15.93,7.76,15.93,17.29s-7.15,17.29-15.93,17.29Z"/><polygon points="1025.8 354.23 1035.68 364.12 1035.68 457.91 1100.5 457.91 1109.81 445.57 1050.4 445.57 1050.41 404.95 1099.73 404.95 1109.31 392.97 1050.41 392.97 1050.4 366.24 1100.46 366.24 1110.01 354.23 1025.8 354.23"/><path d="m1175.5,357.84l-1.41-3.56h-26.35l9.36,9.35-.36.85-34.86,85.87-3.01,7.53h12.98l8.5-20.95h51.46l.36.83,8.24,20.13h16.19l-41.09-100.06Zm-30.35,67.12l.77-1.89,20.12-50.5,20.95,52.39h-41.84Z"/><path d="m1249.59,433.13s0,0,0,0c-.01-.02-.02-.03-.04-.05-.48-.64-.92-1.29-1.34-1.95-.15-.23-.27-.48-.41-.72-.27-.46-.54-.91-.78-1.38-.15-.29-.28-.58-.41-.87-.21-.43-.41-.87-.6-1.31-.13-.31-.24-.63-.36-.94-.16-.43-.32-.87-.46-1.31-.03-.11-.08-.21-.11-.32-.09-.29-.15-.58-.23-.87-.08-.3-.17-.6-.24-.9-.1-.44-.19-.89-.27-1.33-.05-.28-.11-.56-.16-.85-.08-.5-.13-1.01-.18-1.51-.02-.24-.06-.47-.08-.71-.06-.75-.09-1.5-.09-2.25l-.12-61.79h-24.45l9.74,9.72v3.55s.1,48.52.1,48.52c0,23.58,19.65,42.76,43.81,42.76s43.81-19.19,43.81-42.77l-.11-61.8h-21.86s10.1,10.08,10.1,10.08v.56l.1,51.16c0,8.59-3.01,15.85-8.7,21-5.71,5.17-13.78,7.91-23.34,7.91-8.7,0-16.87-3.84-22.43-10.53-.26-.31-.5-.62-.75-.94l-.11-.14s0,0,0,0Z"/><polygon points="1372.8 365.88 1397.38 365.88 1402.56 357.93 1410.88 364.54 1441.51 413.58 1441.51 457.87 1456.94 457.87 1456.94 413.58 1494.31 353.74 1462.17 353.92 1472.79 362.23 1449.25 399.7 1448.81 400.05 1448.51 399.59 1419.12 353.83 1394.47 353.86 1393.48 353.91 1325.36 353.91 1331.82 365.89 1357.59 365.89 1357.59 457.91 1372.3 457.91 1372.3 365.88 1372.8 365.88"/></g></svg>